<svg width="148" height="48" viewBox="0 0 148 48" fill="none" xmlns="http://www.w3.org/2000/svg">
<path d="M17.6602 6.72266H30.7529C32.3459 6.72266 33.6372 8.01301 33.6372 9.60475V37.4493C33.6372 39.0413 32.3461 40.3321 30.7529 40.3331H17.6602V33.2467C18.3453 33.0382 18.9393 32.5786 19.3108 31.9431L27.4726 18.0225C27.9932 17.1305 27.9971 16.0285 27.4828 15.1328C26.9685 14.2371 26.0144 13.6844 24.981 13.6834C23.9557 13.6833 23.0074 14.2271 22.4903 15.1118L17.6602 23.3491V6.72266Z" fill="#1D4498"/>
<path d="M13.562 0.0240471C13.1466 0.0769835 12.7631 0.217307 12.4293 0.42065L1.38412 7.16626C0.524448 7.68937 -0.000132982 8.62245 2.52871e-08 9.62822V37.4711C2.52871e-08 38.513 0.554992 39.4272 1.38328 39.933L12.4293 46.6778C13.3204 47.2221 14.4363 47.2426 15.3467 46.7313C16.2572 46.22 16.8199 45.2569 16.8179 44.2133V33.3933C15.7926 33.3934 14.8443 32.8495 14.3272 31.9648L6.16546 18.0451C5.63567 17.1552 5.62397 16.0499 6.13481 15.149C6.64565 14.2482 7.60061 13.6901 8.63681 13.6869C9.67301 13.6837 10.6314 14.2359 11.1478 15.1336L16.8179 24.8058V2.88597C16.819 2.05618 16.4622 1.26617 15.8387 0.718107C15.2151 0.170045 14.3855 -0.0828834 13.562 0.0240471Z" fill="#1D4498"/>
<path d="M53.78 18.523L49.967 28.443L46.123 18.523H42.248L48.293 33H51.579L57.686 18.523H53.78ZM66.4885 33.31C70.6115 33.31 74.2075 30.303 74.2075 25.715C74.2075 21.127 70.6115 18.213 66.4885 18.213C62.3655 18.213 58.8005 21.127 58.8005 25.715C58.8005 30.303 62.3655 33.31 66.4885 33.31ZM66.4885 29.962C64.2565 29.962 62.4275 28.257 62.4275 25.715C62.4275 23.235 64.2565 21.561 66.4885 21.561C68.7205 21.561 70.5805 23.235 70.5805 25.715C70.5805 28.257 68.7205 29.962 66.4885 29.962ZM77.5911 33H81.1871V10.773H77.5911V33ZM96.5292 10.773V20.445C95.5372 18.926 93.5222 18.213 91.6932 18.213C87.8802 18.213 84.5942 21.096 84.5942 25.746C84.5942 30.365 87.9112 33.31 91.7242 33.31C93.4912 33.31 95.5372 32.597 96.5292 31.047V33H100.125V10.773H96.5292ZM92.2822 29.931C90.0502 29.931 88.2212 28.133 88.2212 25.715C88.2212 23.297 90.0502 21.561 92.2822 21.561C94.3592 21.561 96.4672 23.173 96.4672 25.715C96.4672 28.257 94.4832 29.931 92.2822 29.931ZM118.518 25.622C118.518 21.096 115.263 18.213 111.109 18.213C106.986 18.213 103.514 21.127 103.514 25.746C103.514 30.272 106.8 33.31 111.14 33.31C113.775 33.31 116.317 32.194 117.65 30.086L115.263 28.257C114.395 29.435 112.907 30.055 111.326 30.055C109.187 30.055 107.637 29.032 107.234 27.017H118.425C118.487 26.49 118.518 26.025 118.518 25.622ZM107.234 24.506C107.668 22.305 109.218 21.375 111.171 21.375C113.186 21.375 114.705 22.522 114.922 24.506H107.234ZM129.54 18.213C127.742 18.213 126.161 19.205 125.386 21.623V18.523H121.79V33H125.417V27.947C125.417 23.886 126.719 21.592 129.075 21.592C129.602 21.592 130.346 21.685 131.183 22.119L131.896 18.709C131.338 18.399 130.408 18.213 129.54 18.213ZM138.917 33.31C141.862 33.31 144.807 31.76 144.807 28.815C144.807 27.482 144.218 25.436 140.963 24.599L138.638 23.979C137.801 23.793 137.088 23.359 137.088 22.615C137.088 21.716 137.863 21.096 138.979 21.096C140.002 21.096 140.901 21.716 140.901 22.739H144.342C144.373 19.484 141.459 18.213 138.886 18.213C135.724 18.213 133.492 20.197 133.492 22.46C133.492 24.289 134.329 26.025 137.584 26.893L139.506 27.389C140.591 27.637 141.211 28.009 141.211 28.815C141.211 29.745 140.281 30.396 138.855 30.396C137.336 30.396 136.468 29.466 136.468 28.474H133.089C133.151 31.574 136.034 33.31 138.917 33.31Z" fill="#1D4498"/>
</svg>
